<?xml version="1.0" standalone="no"?><!DOCTYPE svg PUBLIC "-//W3C//DTD SVG 1.1//EN" "http://www.w3.org/Graphics/SVG/1.1/DTD/svg11.dtd"><svg t="1490329832000" class="icon" style="" viewBox="0 0 1024 1024" version="1.1" xmlns="http://www.w3.org/2000/svg" p-id="8865" xmlns:xlink="http://www.w3.org/1999/xlink" width="200" height="200"><defs><style type="text/css"></style></defs><path d="M814.08 206.848c50.176 0 97.28 44.032 97.28 94.208l0 553.984c-10.24-1.024-27.648-6.144-39.936-14.336l-14.336-9.216c-47.104-31.744-102.4-48.128-158.72-48.128-44.032 0-88.064 10.24-128 30.72l-43.008 21.504c-11.264 6.144-24.576 9.216-37.888 9.216-7.168 0-14.336-1.024-20.48-2.048L399.36 825.344c-22.528-6.144-46.08-8.192-69.632-8.192-44.032 0-89.088 17.408-128 36.864C190.464 860.16 177.152 870.4 163.84 870.4l-9.216 0c34.816-102.4 58.368-202.752 69.632-304.128l0-5.12 0-4.096 18.432-264.192c4.096-47.104 44.032-88.064 91.136-88.064L808.96 204.8M821.248 112.64 334.848 112.64c-100.352 0-183.296 74.752-192.512 175.104l-18.432 261.12C112.64 653.312 87.04 754.688 48.128 851.968l-36.864 94.208C9.216 953.344 13.312 962.56 20.48 962.56l143.36 0c28.672 0 57.344-9.216 82.944-22.528 25.6-13.312 54.272-20.48 82.944-20.48 15.36 0 30.72 1.024 45.056 5.12l68.608 16.384c15.36 4.096 29.696 5.12 45.056 5.12 28.672 0 57.344-7.168 82.944-19.456l44.032-21.504c26.624-13.312 54.272-19.456 82.944-19.456 35.84 0 71.68 10.24 103.424 31.744l14.336 12.288c30.72 20.48 66.56 33.792 103.424 33.792l84.992 0c5.12 0 9.216-10.24 9.216-15.36l0-645.12C1013.76 195.584 927.744 112.64 821.248 112.64L821.248 112.64z" p-id="8866" fill="#ffffff"></path><path d="M711.68 411.648m-100.352 0a9.8 9.8 0 1 0 200.704 0 9.8 9.8 0 1 0-200.704 0Z" p-id="8867" fill="#ffffff"></path></svg>